<svg xmlns="http://www.w3.org/2000/svg" width="16" height="17" viewBox="0 0 16 17" fill="none">
<path d="M8 16.0593C3.58064 16.0593 0 12.4998 0 8.10668C0 3.71352 3.58064 0.154099 8 0.154099C12.4194 0.154099 16 3.71352 16 8.10668C16 12.4998 12.4194 16.0593 8 16.0593ZM8.93226 11.4545L6.49677 9.13282H12.3871C12.8161 9.13282 13.1613 8.78971 13.1613 8.36322V7.85015C13.1613 7.42366 12.8161 7.08054 12.3871 7.08054H6.49677L8.93226 4.7589C9.24516 4.46068 9.25161 3.96364 8.94516 3.65901L8.59032 3.30948C8.2871 3.00805 7.79677 3.00805 7.49677 3.30948L3.21613 7.56155C2.9129 7.86298 2.9129 8.35039 3.21613 8.64861L7.49677 12.9039C7.8 13.2053 8.29032 13.2053 8.59032 12.9039L8.94516 12.5544C9.25161 12.2497 9.24516 11.7527 8.93226 11.4545Z" fill="white"/>
</svg>