<svg xmlns="http://www.w3.org/2000/svg" width="16" height="17" viewBox="0 0 16 17" fill="none">
<path d="M8 0.154099C12.4194 0.154099 16 3.71352 16 8.10668C16 12.4998 12.4194 16.0593 8 16.0593C3.58064 16.0593 0 12.4998 0 8.10668C0 3.71352 3.58064 0.154099 8 0.154099ZM7.06774 4.7589L9.50322 7.08054H3.6129C3.18387 7.08054 2.83871 7.42366 2.83871 7.85015V8.36322C2.83871 8.78971 3.18387 9.13282 3.6129 9.13282H9.50322L7.06774 11.4545C6.75484 11.7527 6.74839 12.2497 7.05484 12.5544L7.40968 12.9039C7.7129 13.2053 8.20322 13.2053 8.50322 12.9039L12.7839 8.65182C13.0871 8.35039 13.0871 7.86298 12.7839 7.56475L8.50322 3.30627C8.2 3.00484 7.70968 3.00484 7.40968 3.30627L7.05484 3.6558C6.74839 3.96364 6.75484 4.46068 7.06774 4.7589H7.06774Z" fill="white"/>
</svg>