<svg xmlns="http://www.w3.org/2000/svg" width="18" height="18" viewBox="0 0 18 18" fill="none">
  <path d="M7.46953 14.3553C7.29077 14.3557 7.11754 14.2934 6.97989 14.1794C6.82343 14.0497 6.72502 13.863 6.70636 13.6606C6.6877 13.4583 6.75033 13.2568 6.88044 13.1006L10.3079 8.99995L7.00285 4.8916C6.87449 4.73355 6.81444 4.53085 6.83598 4.32838C6.85751 4.12592 6.95887 3.94039 7.1176 3.81288C7.27763 3.67208 7.48914 3.60442 7.70117 3.6262C7.9132 3.64799 8.10653 3.75724 8.23459 3.92763L11.9298 8.51797C12.1619 8.80028 12.1619 9.20728 11.9298 9.48959L8.10453 14.0799C7.94886 14.2677 7.713 14.37 7.46953 14.3553Z" fill="#1391E6"/>
</svg>