<svg xmlns="http://www.w3.org/2000/svg" width="14" height="14" viewBox="0 0 14 14" fill="none">
  <path d="M7 14C3.13306 14 0 10.8669 0 7C0 3.13306 3.13306 0 7 0C10.8669 0 14 3.13306 14 7C14 10.8669 10.8669 14 7 14ZM7.81573 9.94677L5.68468 7.90323H10.8387C11.2141 7.90323 11.5161 7.60121 11.5161 7.22581V6.77419C11.5161 6.39879 11.2141 6.09677 10.8387 6.09677H5.68468L7.81573 4.05323C8.08952 3.79073 8.09516 3.35323 7.82702 3.08508L7.51653 2.77742C7.25121 2.5121 6.82218 2.5121 6.55968 2.77742L2.81411 6.52016C2.54879 6.78549 2.54879 7.21452 2.81411 7.47702L6.55968 11.2226C6.825 11.4879 7.25403 11.4879 7.51653 11.2226L7.82702 10.9149C8.09516 10.6468 8.08952 10.2093 7.81573 9.94677Z" fill="white"/>
</svg>