<svg xmlns="http://www.w3.org/2000/svg" width="254" height="2" viewBox="0 0 254 2" fill="none">
  <circle cx="1" cy="1" r="0.5" fill="white"/>
  <circle cx="5" cy="1" r="0.5" fill="white"/>
  <circle cx="9" cy="1" r="0.5" fill="white"/>
  <circle cx="13" cy="1" r="0.5" fill="white"/>
  <circle cx="17" cy="1" r="0.5" fill="white"/>
  <circle cx="21" cy="1" r="0.5" fill="white"/>
  <circle cx="25" cy="1" r="0.5" fill="white"/>
  <circle cx="29" cy="1" r="0.5" fill="white"/>
  <circle cx="33" cy="1" r="0.5" fill="white"/>
  <circle cx="37" cy="1" r="0.5" fill="white"/>
  <circle cx="41" cy="1" r="0.5" fill="white"/>
  <circle cx="45" cy="1" r="0.5" fill="white"/>
  <circle cx="49" cy="1" r="0.5" fill="white"/>
  <circle cx="53" cy="1" r="0.5" fill="white"/>
  <circle cx="57" cy="1" r="0.5" fill="white"/>
  <circle cx="61" cy="1" r="0.5" fill="white"/>
  <circle cx="65" cy="1" r="0.5" fill="white"/>
  <circle cx="69" cy="1" r="0.5" fill="white"/>
  <circle cx="73" cy="1" r="0.5" fill="white"/>
  <circle cx="77" cy="1" r="0.5" fill="white"/>
  <circle cx="81" cy="1" r="0.5" fill="white"/>
  <circle cx="85" cy="1" r="0.5" fill="white"/>
  <circle cx="89" cy="1" r="0.5" fill="white"/>
  <circle cx="93" cy="1" r="0.5" fill="white"/>
  <circle cx="97" cy="1" r="0.5" fill="white"/>
  <circle cx="101" cy="1" r="0.5" fill="white"/>
  <circle cx="105" cy="1" r="0.5" fill="white"/>
  <circle cx="109" cy="1" r="0.5" fill="white"/>
  <circle cx="113" cy="1" r="0.5" fill="white"/>
  <circle cx="117" cy="1" r="0.5" fill="white"/>
  <circle cx="121" cy="1" r="0.5" fill="white"/>
  <circle cx="125" cy="1" r="0.5" fill="white"/>
  <circle cx="129" cy="1" r="0.5" fill="white"/>
  <circle cx="133" cy="1" r="0.5" fill="white"/>
  <circle cx="137" cy="1" r="0.5" fill="white"/>
  <circle cx="141" cy="1" r="0.5" fill="white"/>
  <circle cx="145" cy="1" r="0.5" fill="white"/>
  <circle cx="149" cy="1" r="0.5" fill="white"/>
  <circle cx="153" cy="1" r="0.5" fill="white"/>
  <circle cx="157" cy="1" r="0.5" fill="white"/>
  <circle cx="161" cy="1" r="0.5" fill="white"/>
  <circle cx="165" cy="1" r="0.5" fill="white"/>
  <circle cx="169" cy="1" r="0.5" fill="white"/>
  <circle cx="173" cy="1" r="0.5" fill="white"/>
  <circle cx="177" cy="1" r="0.5" fill="white"/>
  <circle cx="181" cy="1" r="0.5" fill="white"/>
  <circle cx="185" cy="1" r="0.5" fill="white"/>
  <circle cx="189" cy="1" r="0.5" fill="white"/>
  <circle cx="193" cy="1" r="0.5" fill="white"/>
  <circle cx="197" cy="1" r="0.5" fill="white"/>
  <circle cx="201" cy="1" r="0.5" fill="white"/>
  <circle cx="205" cy="1" r="0.5" fill="white"/>
  <circle cx="209" cy="1" r="0.5" fill="white"/>
  <circle cx="213" cy="1" r="0.5" fill="white"/>
  <circle cx="217" cy="1" r="0.5" fill="white"/>
  <circle cx="221" cy="1" r="0.5" fill="white"/>
  <circle cx="225" cy="1" r="0.5" fill="white"/>
  <circle cx="229" cy="1" r="0.5" fill="white"/>
  <circle cx="233" cy="1" r="0.5" fill="white"/>
  <circle cx="237" cy="1" r="0.5" fill="white"/>
  <circle cx="241" cy="1" r="0.5" fill="white"/>
  <circle cx="245" cy="1" r="0.5" fill="white"/>
  <circle cx="249" cy="1" r="0.5" fill="white"/>
  <circle cx="253" cy="1" r="0.5" fill="white"/>
</svg>