<svg xmlns="http://www.w3.org/2000/svg" width="30" height="20" viewBox="0 0 30 20" fill="none">
<path d="M26.988 6.36255H22.0414C21.4562 6.36255 20.9814 6.83733 20.9814 7.42253V16.609C20.9814 17.1942 21.4562 17.669 22.0414 17.669H26.988C27.5732 17.669 28.048 17.1942 28.048 16.609V7.42253C28.048 6.83733 27.5732 6.36255 26.988 6.36255ZM24.5147 16.9624C24.1239 16.9624 23.8081 16.6466 23.8081 16.2557C23.8081 15.8649 24.1239 15.5491 24.5147 15.5491C24.9056 15.5491 25.2214 15.8649 25.2214 16.2557C25.2214 16.6466 24.9056 16.9624 24.5147 16.9624ZM26.988 14.5774C26.988 14.7232 26.8688 14.8424 26.723 14.8424H22.3064C22.1607 14.8424 22.0414 14.7232 22.0414 14.5774V7.68753C22.0414 7.54178 22.1607 7.42253 22.3064 7.42253H26.723C26.8688 7.42253 26.988 7.54178 26.988 7.68753V14.5774Z" fill="white"/>
<path d="M18.1274 3H4.37522C3.61598 3 3 3.61598 3 4.37521V13.5433C3 14.3025 3.61598 14.9185 4.37522 14.9185H9.87609L9.41769 16.2937H7.35486C6.97381 16.2937 6.66725 16.6003 6.66725 16.9814C6.66725 17.3624 6.97381 17.669 7.35486 17.669H15.1478C15.5288 17.669 15.8354 17.3624 15.8354 16.9814C15.8354 16.6003 15.5288 16.2937 15.1478 16.2937H13.0849L12.6265 14.9185H18.1274C18.8866 14.9185 19.5026 14.3025 19.5026 13.5433V4.37521C19.5026 3.61598 18.8866 3 18.1274 3ZM17.669 13.0849H4.83362V4.83362H17.669V13.0849Z" fill="white"/>
</svg>